<svg width="932" height="430" viewBox="0 0 932 430" fill="none" xmlns="http://www.w3.org/2000/svg">
<g clip-path="url(#clip0_253_530)">
<rect width="430" height="932" transform="translate(932) rotate(90)" fill="#353535"/>
<rect x="254" y="124" width="424" height="182" fill="#353535" stroke="#E88F00" stroke-width="4"/>
<rect x="217" y="168" width="502" height="47" fill="#353535"/>
<path d="M235.75 202L243.22 179.8H250.18L257.65 202H252.22L250.93 197.95H242.47L241.18 202H235.75ZM243.91 193.51H249.52L246.7 184.78L243.91 193.51ZM260.028 202V186.1H265.098V188.5H265.278C265.438 188.08 265.668 187.67 265.968 187.27C266.288 186.85 266.728 186.5 267.288 186.22C267.848 185.94 268.588 185.8 269.508 185.8C269.948 185.8 270.298 185.83 270.558 185.89C270.818 185.95 270.948 185.98 270.948 185.98V191.05C270.948 191.05 270.808 191.02 270.528 190.96C270.248 190.9 269.858 190.87 269.358 190.87C267.938 190.87 266.878 191.25 266.178 192.01C265.498 192.77 265.158 194.01 265.158 195.73V202H260.028ZM280.932 202.3C279.512 202.3 278.282 202.07 277.242 201.61C276.202 201.13 275.332 200.5 274.632 199.72C273.952 198.92 273.442 198.03 273.102 197.05C272.782 196.07 272.622 195.06 272.622 194.02C272.622 193.02 272.782 192.03 273.102 191.05C273.422 190.07 273.912 189.19 274.572 188.41C275.232 187.61 276.072 186.98 277.092 186.52C278.132 186.04 279.362 185.8 280.782 185.8C282.302 185.8 283.632 186.13 284.772 186.79C285.932 187.43 286.832 188.38 287.472 189.64C288.132 190.88 288.462 192.39 288.462 194.17V195.37H277.782C277.842 196.19 278.132 196.91 278.652 197.53C279.192 198.13 279.952 198.43 280.932 198.43C281.672 198.43 282.232 198.3 282.612 198.04C283.012 197.76 283.282 197.48 283.422 197.2C283.562 196.92 283.632 196.78 283.632 196.78H288.342C288.342 196.78 288.292 196.97 288.192 197.35C288.092 197.71 287.902 198.17 287.622 198.73C287.342 199.27 286.932 199.82 286.392 200.38C285.852 200.92 285.132 201.38 284.232 201.76C283.352 202.12 282.252 202.3 280.932 202.3ZM277.752 192.4H283.542C283.502 191.46 283.212 190.75 282.672 190.27C282.152 189.79 281.492 189.55 280.692 189.55C279.912 189.55 279.242 189.79 278.682 190.27C278.142 190.75 277.832 191.46 277.752 192.4ZM299.966 207.85C299.406 207.85 298.956 207.83 298.616 207.79C298.296 207.75 298.136 207.73 298.136 207.73V203.65C298.136 203.65 298.266 203.66 298.526 203.68C298.786 203.7 299.116 203.71 299.516 203.71C300.396 203.71 301.126 203.6 301.706 203.38C302.286 203.18 302.786 202.76 303.206 202.12L297.416 186.1H302.546L305.906 196.3L309.176 186.1H314.276L308.756 201.16C308.216 202.66 307.576 203.9 306.836 204.88C306.116 205.88 305.206 206.62 304.106 207.1C303.006 207.6 301.626 207.85 299.966 207.85ZM323.826 202.3C322.026 202.3 320.496 201.92 319.236 201.16C317.976 200.4 317.006 199.39 316.326 198.13C315.666 196.87 315.336 195.51 315.336 194.05C315.336 192.59 315.666 191.23 316.326 189.97C317.006 188.71 317.976 187.7 319.236 186.94C320.496 186.18 322.026 185.8 323.826 185.8C325.646 185.8 327.186 186.18 328.446 186.94C329.706 187.7 330.666 188.71 331.326 189.97C332.006 191.23 332.346 192.59 332.346 194.05C332.346 195.51 332.006 196.87 331.326 198.13C330.666 199.39 329.706 200.4 328.446 201.16C327.186 201.92 325.646 202.3 323.826 202.3ZM323.826 198.16C324.886 198.16 325.706 197.76 326.286 196.96C326.886 196.14 327.186 195.17 327.186 194.05C327.186 192.93 326.886 191.97 326.286 191.17C325.706 190.35 324.886 189.94 323.826 189.94C322.786 189.94 321.966 190.35 321.366 191.17C320.766 191.97 320.466 192.93 320.466 194.05C320.466 195.17 320.766 196.14 321.366 196.96C321.966 197.76 322.786 198.16 323.826 198.16ZM340.299 202.3C339.139 202.3 338.199 202.06 337.479 201.58C336.779 201.08 336.259 200.43 335.919 199.63C335.579 198.81 335.409 197.91 335.409 196.93V186.1H340.479V195.79C340.479 196.47 340.659 197.03 341.019 197.47C341.379 197.91 341.919 198.13 342.639 198.13C343.459 198.13 344.039 197.86 344.379 197.32C344.739 196.76 344.919 196.13 344.919 195.43V186.1H350.049V202H344.919V199.75H344.739C344.339 200.45 343.779 201.05 343.059 201.55C342.339 202.05 341.419 202.3 340.299 202.3ZM367.184 202.3C365.824 202.3 364.694 202.12 363.794 201.76C362.914 201.4 362.214 200.95 361.694 200.41C361.174 199.87 360.784 199.33 360.524 198.79C360.264 198.25 360.094 197.8 360.014 197.44C359.934 197.08 359.894 196.9 359.894 196.9H364.574C364.574 196.9 364.604 196.99 364.664 197.17C364.744 197.33 364.874 197.53 365.054 197.77C365.254 197.99 365.544 198.19 365.924 198.37C366.304 198.53 366.814 198.61 367.454 198.61C368.234 198.61 368.744 198.46 368.984 198.16C369.224 197.86 369.344 197.59 369.344 197.35C369.344 196.75 368.834 196.35 367.814 196.15L365.624 195.76C364.664 195.6 363.764 195.34 362.924 194.98C362.084 194.62 361.404 194.12 360.884 193.48C360.364 192.84 360.104 192.01 360.104 190.99C360.104 190.01 360.354 189.13 360.854 188.35C361.374 187.57 362.114 186.95 363.074 186.49C364.054 186.03 365.234 185.8 366.614 185.8C367.874 185.8 368.924 185.97 369.764 186.31C370.604 186.65 371.274 187.07 371.774 187.57C372.274 188.07 372.644 188.57 372.884 189.07C373.124 189.57 373.284 189.99 373.364 190.33C373.444 190.67 373.484 190.84 373.484 190.84H368.954C368.954 190.84 368.894 190.72 368.774 190.48C368.654 190.24 368.414 190 368.054 189.76C367.714 189.52 367.194 189.4 366.494 189.4C365.794 189.4 365.314 189.54 365.054 189.82C364.794 190.08 364.664 190.35 364.664 190.63C364.664 190.99 364.834 191.26 365.174 191.44C365.514 191.6 365.944 191.73 366.464 191.83L368.474 192.22C370.054 192.52 371.344 193.05 372.344 193.81C373.364 194.55 373.874 195.64 373.874 197.08C373.874 198.56 373.294 199.8 372.134 200.8C370.994 201.8 369.344 202.3 367.184 202.3ZM381.461 202.3C380.301 202.3 379.361 202.06 378.641 201.58C377.941 201.08 377.421 200.43 377.081 199.63C376.741 198.81 376.571 197.91 376.571 196.93V186.1H381.641V195.79C381.641 196.47 381.821 197.03 382.181 197.47C382.541 197.91 383.081 198.13 383.801 198.13C384.621 198.13 385.201 197.86 385.541 197.32C385.901 196.76 386.081 196.13 386.081 195.43V186.1H391.211V202H386.081V199.75H385.901C385.501 200.45 384.941 201.05 384.221 201.55C383.501 202.05 382.581 202.3 381.461 202.3ZM394.442 202V186.1H399.512V188.5H399.692C399.852 188.08 400.082 187.67 400.382 187.27C400.702 186.85 401.142 186.5 401.702 186.22C402.262 185.94 403.002 185.8 403.922 185.8C404.362 185.8 404.712 185.83 404.972 185.89C405.232 185.95 405.362 185.98 405.362 185.98V191.05C405.362 191.05 405.222 191.02 404.942 190.96C404.662 190.9 404.272 190.87 403.772 190.87C402.352 190.87 401.292 191.25 400.592 192.01C399.912 192.77 399.572 194.01 399.572 195.73V202H394.442ZM415.346 202.3C413.926 202.3 412.696 202.07 411.656 201.61C410.616 201.13 409.746 200.5 409.046 199.72C408.366 198.92 407.856 198.03 407.516 197.05C407.196 196.07 407.036 195.06 407.036 194.02C407.036 193.02 407.196 192.03 407.516 191.05C407.836 190.07 408.326 189.19 408.986 188.41C409.646 187.61 410.486 186.98 411.506 186.52C412.546 186.04 413.776 185.8 415.196 185.8C416.716 185.8 418.046 186.13 419.186 186.79C420.346 187.43 421.246 188.38 421.886 189.64C422.546 190.88 422.876 192.39 422.876 194.17V195.37H412.196C412.256 196.19 412.546 196.91 413.066 197.53C413.606 198.13 414.366 198.43 415.346 198.43C416.086 198.43 416.646 198.3 417.026 198.04C417.426 197.76 417.696 197.48 417.836 197.2C417.976 196.92 418.046 196.78 418.046 196.78H422.756C422.756 196.78 422.706 196.97 422.606 197.35C422.506 197.71 422.316 198.17 422.036 198.73C421.756 199.27 421.346 199.82 420.806 200.38C420.266 200.92 419.546 201.38 418.646 201.76C417.766 202.12 416.666 202.3 415.346 202.3ZM412.166 192.4H417.956C417.916 191.46 417.626 190.75 417.086 190.27C416.566 189.79 415.906 189.55 415.106 189.55C414.326 189.55 413.656 189.79 413.096 190.27C412.556 190.75 412.246 191.46 412.166 192.4ZM434.38 207.85C433.82 207.85 433.37 207.83 433.03 207.79C432.71 207.75 432.55 207.73 432.55 207.73V203.65C432.55 203.65 432.68 203.66 432.94 203.68C433.2 203.7 433.53 203.71 433.93 203.71C434.81 203.71 435.54 203.6 436.12 203.38C436.7 203.18 437.2 202.76 437.62 202.12L431.83 186.1H436.96L440.32 196.3L443.59 186.1H448.69L443.17 201.16C442.63 202.66 441.99 203.9 441.25 204.88C440.53 205.88 439.62 206.62 438.52 207.1C437.42 207.6 436.04 207.85 434.38 207.85ZM458.241 202.3C456.441 202.3 454.911 201.92 453.651 201.16C452.391 200.4 451.421 199.39 450.741 198.13C450.081 196.87 449.751 195.51 449.751 194.05C449.751 192.59 450.081 191.23 450.741 189.97C451.421 188.71 452.391 187.7 453.651 186.94C454.911 186.18 456.441 185.8 458.241 185.8C460.061 185.8 461.601 186.18 462.861 186.94C464.121 187.7 465.081 188.71 465.741 189.97C466.421 191.23 466.761 192.59 466.761 194.05C466.761 195.51 466.421 196.87 465.741 198.13C465.081 199.39 464.121 200.4 462.861 201.16C461.601 201.92 460.061 202.3 458.241 202.3ZM458.241 198.16C459.301 198.16 460.121 197.76 460.701 196.96C461.301 196.14 461.601 195.17 461.601 194.05C461.601 192.93 461.301 191.97 460.701 191.17C460.121 190.35 459.301 189.94 458.241 189.94C457.201 189.94 456.381 190.35 455.781 191.17C455.181 191.97 454.881 192.93 454.881 194.05C454.881 195.17 455.181 196.14 455.781 196.96C456.381 197.76 457.201 198.16 458.241 198.16ZM474.713 202.3C473.553 202.3 472.613 202.06 471.893 201.58C471.193 201.08 470.673 200.43 470.333 199.63C469.993 198.81 469.823 197.91 469.823 196.93V186.1H474.893V195.79C474.893 196.47 475.073 197.03 475.433 197.47C475.793 197.91 476.333 198.13 477.053 198.13C477.873 198.13 478.453 197.86 478.793 197.32C479.153 196.76 479.333 196.13 479.333 195.43V186.1H484.463V202H479.333V199.75H479.153C478.753 200.45 478.193 201.05 477.473 201.55C476.753 202.05 475.833 202.3 474.713 202.3ZM498.388 202L493.558 186.1H498.658L501.178 195.85L504.028 186.1H508.618L511.438 195.85L513.988 186.1H519.058L514.228 202H508.798L506.308 193.51L503.818 202H498.388ZM527.11 185.8C528.15 185.8 528.99 185.97 529.63 186.31C530.29 186.65 530.78 187 531.1 187.36C531.44 187.7 531.63 187.91 531.67 187.99H531.91V186.1H537.04V202H531.91V200.11H531.67C531.63 200.19 531.44 200.41 531.1 200.77C530.78 201.13 530.29 201.48 529.63 201.82C528.99 202.14 528.15 202.3 527.11 202.3C525.95 202.3 524.94 202.07 524.08 201.61C523.22 201.13 522.5 200.5 521.92 199.72C521.34 198.92 520.91 198.03 520.63 197.05C520.35 196.07 520.21 195.07 520.21 194.05C520.21 193.03 520.35 192.03 520.63 191.05C520.91 190.07 521.34 189.19 521.92 188.41C522.5 187.61 523.22 186.98 524.08 186.52C524.94 186.04 525.95 185.8 527.11 185.8ZM528.73 189.91C527.99 189.91 527.37 190.12 526.87 190.54C526.37 190.94 526 191.46 525.76 192.1C525.52 192.72 525.4 193.37 525.4 194.05C525.4 194.73 525.52 195.39 525.76 196.03C526 196.65 526.37 197.17 526.87 197.59C527.37 197.99 527.99 198.19 528.73 198.19C529.47 198.19 530.08 197.99 530.56 197.59C531.06 197.17 531.43 196.65 531.67 196.03C531.93 195.39 532.06 194.73 532.06 194.05C532.06 193.37 531.93 192.72 531.67 192.1C531.43 191.46 531.06 190.94 530.56 190.54C530.08 190.12 529.47 189.91 528.73 189.91ZM540.399 202V186.1H545.529V188.35H545.679C545.879 188.03 546.149 187.67 546.489 187.27C546.849 186.87 547.319 186.53 547.899 186.25C548.499 185.95 549.239 185.8 550.119 185.8C551.399 185.8 552.419 186.09 553.179 186.67C553.959 187.25 554.519 187.99 554.859 188.89C555.199 189.77 555.369 190.68 555.369 191.62V202H550.239V192.58C550.239 191.9 550.059 191.3 549.699 190.78C549.339 190.24 548.749 189.97 547.929 189.97C547.029 189.97 546.399 190.27 546.039 190.87C545.699 191.45 545.529 192.09 545.529 192.79V202H540.399ZM566.125 202.3C564.765 202.3 563.685 202.09 562.885 201.67C562.105 201.25 561.535 200.73 561.175 200.11C560.815 199.47 560.585 198.83 560.485 198.19C560.385 197.53 560.335 196.97 560.335 196.51V190.18H557.695V186.1H560.335V182.17H565.465V186.1H568.705V190.18H565.465V196.36C565.465 196.96 565.625 197.44 565.945 197.8C566.285 198.14 566.855 198.31 567.655 198.31C567.995 198.31 568.295 198.29 568.555 198.25C568.815 198.19 568.945 198.16 568.945 198.16V202C568.945 202 568.655 202.05 568.075 202.15C567.515 202.25 566.865 202.3 566.125 202.3ZM586.281 202.3C584.921 202.3 583.841 202.09 583.041 201.67C582.261 201.25 581.691 200.73 581.331 200.11C580.971 199.47 580.741 198.83 580.641 198.19C580.541 197.53 580.491 196.97 580.491 196.51V190.18H577.851V186.1H580.491V182.17H585.621V186.1H588.861V190.18H585.621V196.36C585.621 196.96 585.781 197.44 586.101 197.8C586.441 198.14 587.011 198.31 587.811 198.31C588.151 198.31 588.451 198.29 588.711 198.25C588.971 198.19 589.101 198.16 589.101 198.16V202C589.101 202 588.811 202.05 588.231 202.15C587.671 202.25 587.021 202.3 586.281 202.3ZM600.096 202.3C598.296 202.3 596.766 201.92 595.506 201.16C594.246 200.4 593.276 199.39 592.596 198.13C591.936 196.87 591.606 195.51 591.606 194.05C591.606 192.59 591.936 191.23 592.596 189.97C593.276 188.71 594.246 187.7 595.506 186.94C596.766 186.18 598.296 185.8 600.096 185.8C601.916 185.8 603.456 186.18 604.716 186.94C605.976 187.7 606.936 188.71 607.596 189.97C608.276 191.23 608.616 192.59 608.616 194.05C608.616 195.51 608.276 196.87 607.596 198.13C606.936 199.39 605.976 200.4 604.716 201.16C603.456 201.92 601.916 202.3 600.096 202.3ZM600.096 198.16C601.156 198.16 601.976 197.76 602.556 196.96C603.156 196.14 603.456 195.17 603.456 194.05C603.456 192.93 603.156 191.97 602.556 191.17C601.976 190.35 601.156 189.94 600.096 189.94C599.056 189.94 598.236 190.35 597.636 191.17C597.036 191.97 596.736 192.93 596.736 194.05C596.736 195.17 597.036 196.14 597.636 196.96C598.236 197.76 599.056 198.16 600.096 198.16ZM630.113 207.85V200.11H629.873C629.833 200.19 629.643 200.41 629.303 200.77C628.983 201.13 628.493 201.48 627.833 201.82C627.193 202.14 626.353 202.3 625.313 202.3C624.153 202.3 623.143 202.07 622.283 201.61C621.423 201.13 620.703 200.5 620.123 199.72C619.543 198.92 619.113 198.03 618.833 197.05C618.553 196.07 618.413 195.07 618.413 194.05C618.413 193.03 618.553 192.03 618.833 191.05C619.113 190.07 619.543 189.19 620.123 188.41C620.703 187.61 621.423 186.98 622.283 186.52C623.143 186.04 624.153 185.8 625.313 185.8C626.353 185.8 627.193 185.97 627.833 186.31C628.493 186.65 628.983 187 629.303 187.36C629.643 187.7 629.833 187.91 629.873 187.99H630.113V186.1H635.243V207.85H630.113ZM626.933 198.19C627.673 198.19 628.283 197.99 628.763 197.59C629.263 197.17 629.633 196.65 629.873 196.03C630.133 195.39 630.263 194.73 630.263 194.05C630.263 193.37 630.133 192.72 629.873 192.1C629.633 191.46 629.263 190.94 628.763 190.54C628.283 190.12 627.673 189.91 626.933 189.91C626.193 189.91 625.573 190.12 625.073 190.54C624.573 190.94 624.203 191.46 623.963 192.1C623.723 192.72 623.603 193.37 623.603 194.05C623.603 194.73 623.723 195.39 623.963 196.03C624.203 196.65 624.573 197.17 625.073 197.59C625.573 197.99 626.193 198.19 626.933 198.19ZM643.668 202.3C642.508 202.3 641.568 202.06 640.848 201.58C640.148 201.08 639.628 200.43 639.288 199.63C638.948 198.81 638.778 197.91 638.778 196.93V186.1H643.848V195.79C643.848 196.47 644.028 197.03 644.388 197.47C644.748 197.91 645.288 198.13 646.008 198.13C646.828 198.13 647.408 197.86 647.748 197.32C648.108 196.76 648.288 196.13 648.288 195.43V186.1H653.418V202H648.288V199.75H648.108C647.708 200.45 647.148 201.05 646.428 201.55C645.708 202.05 644.788 202.3 643.668 202.3ZM659.619 184.21C658.759 184.21 658.049 183.93 657.489 183.37C656.929 182.81 656.649 182.15 656.649 181.39C656.649 180.59 656.929 179.91 657.489 179.35C658.049 178.79 658.759 178.51 659.619 178.51C660.479 178.51 661.189 178.79 661.749 179.35C662.309 179.91 662.589 180.59 662.589 181.39C662.589 182.15 662.309 182.81 661.749 183.37C661.189 183.93 660.479 184.21 659.619 184.21ZM657.039 202V186.1H662.169V202H657.039ZM673.439 202.3C672.079 202.3 670.999 202.09 670.199 201.67C669.419 201.25 668.849 200.73 668.489 200.11C668.129 199.47 667.899 198.83 667.799 198.19C667.699 197.53 667.649 196.97 667.649 196.51V190.18H665.009V186.1H667.649V182.17H672.779V186.1H676.019V190.18H672.779V196.36C672.779 196.96 672.939 197.44 673.259 197.8C673.599 198.14 674.169 198.31 674.969 198.31C675.309 198.31 675.609 198.29 675.869 198.25C676.129 198.19 676.259 198.16 676.259 198.16V202C676.259 202 675.969 202.05 675.389 202.15C674.829 202.25 674.179 202.3 673.439 202.3ZM684.401 195.28V194.32C684.401 193.44 684.581 192.69 684.941 192.07C685.301 191.43 685.741 190.88 686.261 190.42C686.781 189.94 687.301 189.5 687.821 189.1C688.361 188.7 688.801 188.28 689.141 187.84C689.501 187.4 689.681 186.9 689.681 186.34C689.681 185.66 689.421 185.1 688.901 184.66C688.381 184.2 687.721 183.97 686.921 183.97C686.141 183.97 685.451 184.23 684.851 184.75C684.271 185.25 683.981 186.05 683.981 187.15H679.031C679.031 185.41 679.411 183.98 680.171 182.86C680.951 181.72 681.951 180.88 683.171 180.34C684.411 179.78 685.721 179.5 687.101 179.5C688.521 179.5 689.821 179.78 691.001 180.34C692.181 180.9 693.121 181.68 693.821 182.68C694.541 183.68 694.901 184.86 694.901 186.22C694.901 187.2 694.721 188.04 694.361 188.74C694.001 189.42 693.551 190.01 693.011 190.51C692.471 191.01 691.931 191.46 691.391 191.86C690.871 192.24 690.421 192.63 690.041 193.03C689.681 193.41 689.501 193.84 689.501 194.32V195.28H684.401ZM686.951 202.3C686.171 202.3 685.531 202.04 685.031 201.52C684.551 201 684.311 200.39 684.311 199.69C684.311 198.95 684.551 198.33 685.031 197.83C685.531 197.31 686.171 197.05 686.951 197.05C687.711 197.05 688.331 197.31 688.811 197.83C689.311 198.33 689.561 198.95 689.561 199.69C689.561 200.41 689.311 201.03 688.811 201.55C688.331 202.05 687.711 202.3 686.951 202.3Z" fill="#E88F00"/>
<path d="M385.182 217.758V227H383.951L379.298 219.872V227H378.073V217.758H379.298L383.97 224.905V217.758H385.182ZM386.864 223.642V223.496C386.864 223.001 386.936 222.542 387.08 222.119C387.224 221.691 387.431 221.321 387.702 221.008C387.973 220.69 388.301 220.445 388.686 220.271C389.071 220.094 389.503 220.005 389.981 220.005C390.463 220.005 390.897 220.094 391.282 220.271C391.672 220.445 392.002 220.69 392.272 221.008C392.548 221.321 392.757 221.691 392.901 222.119C393.045 222.542 393.117 223.001 393.117 223.496V223.642C393.117 224.137 393.045 224.596 392.901 225.02C392.757 225.443 392.548 225.813 392.272 226.13C392.002 226.444 391.674 226.689 391.289 226.867C390.908 227.04 390.476 227.127 389.994 227.127C389.511 227.127 389.077 227.04 388.692 226.867C388.307 226.689 387.977 226.444 387.702 226.13C387.431 225.813 387.224 225.443 387.08 225.02C386.936 224.596 386.864 224.137 386.864 223.642ZM388.039 223.496V223.642C388.039 223.985 388.079 224.309 388.159 224.613C388.24 224.914 388.36 225.18 388.521 225.413C388.686 225.646 388.891 225.83 389.137 225.965C389.382 226.097 389.668 226.162 389.994 226.162C390.315 226.162 390.597 226.097 390.838 225.965C391.083 225.83 391.286 225.646 391.447 225.413C391.608 225.18 391.729 224.914 391.809 224.613C391.894 224.309 391.936 223.985 391.936 223.642V223.496C391.936 223.158 391.894 222.838 391.809 222.538C391.729 222.233 391.606 221.964 391.441 221.731C391.28 221.494 391.077 221.308 390.832 221.173C390.59 221.037 390.307 220.97 389.981 220.97C389.659 220.97 389.376 221.037 389.13 221.173C388.889 221.308 388.686 221.494 388.521 221.731C388.36 221.964 388.24 222.233 388.159 222.538C388.079 222.838 388.039 223.158 388.039 223.496ZM397.465 220.132V221.033H393.751V220.132H397.465ZM395.008 218.462H396.183V225.299C396.183 225.532 396.219 225.707 396.291 225.826C396.362 225.944 396.456 226.022 396.57 226.061C396.684 226.099 396.807 226.118 396.938 226.118C397.035 226.118 397.137 226.109 397.243 226.092C397.353 226.071 397.435 226.054 397.49 226.042L397.497 227C397.403 227.03 397.281 227.057 397.128 227.083C396.98 227.112 396.8 227.127 396.589 227.127C396.301 227.127 396.037 227.07 395.795 226.956C395.554 226.841 395.362 226.651 395.218 226.384C395.078 226.113 395.008 225.75 395.008 225.292V218.462ZM401.692 227.127C401.214 227.127 400.78 227.047 400.391 226.886C400.006 226.721 399.674 226.49 399.395 226.194C399.119 225.898 398.908 225.546 398.76 225.14C398.612 224.734 398.538 224.29 398.538 223.807V223.541C398.538 222.982 398.62 222.485 398.785 222.049C398.95 221.609 399.174 221.236 399.458 220.932C399.742 220.627 400.063 220.396 400.423 220.24C400.783 220.083 401.155 220.005 401.54 220.005C402.031 220.005 402.454 220.09 402.81 220.259C403.169 220.428 403.463 220.665 403.692 220.97C403.92 221.27 404.09 221.626 404.2 222.036C404.31 222.442 404.365 222.887 404.365 223.369V223.896H399.236V222.938H403.19V222.849C403.174 222.544 403.11 222.248 403 221.96C402.894 221.672 402.725 221.435 402.492 221.249C402.259 221.063 401.942 220.97 401.54 220.97C401.273 220.97 401.028 221.027 400.804 221.141C400.579 221.251 400.387 221.416 400.226 221.636C400.065 221.856 399.94 222.125 399.852 222.442C399.763 222.76 399.718 223.126 399.718 223.541V223.807C399.718 224.133 399.763 224.44 399.852 224.728C399.945 225.011 400.078 225.261 400.251 225.477C400.429 225.692 400.643 225.862 400.893 225.984C401.146 226.107 401.434 226.168 401.756 226.168C402.171 226.168 402.522 226.084 402.81 225.915C403.097 225.745 403.349 225.519 403.565 225.235L404.276 225.8C404.128 226.025 403.939 226.238 403.711 226.441C403.482 226.645 403.201 226.81 402.867 226.937C402.537 227.063 402.145 227.127 401.692 227.127ZM405.685 226.378C405.685 226.179 405.746 226.012 405.869 225.876C405.996 225.737 406.178 225.667 406.415 225.667C406.652 225.667 406.832 225.737 406.955 225.876C407.082 226.012 407.145 226.179 407.145 226.378C407.145 226.573 407.082 226.738 406.955 226.873C406.832 227.008 406.652 227.076 406.415 227.076C406.178 227.076 405.996 227.008 405.869 226.873C405.746 226.738 405.685 226.573 405.685 226.378ZM405.691 220.773C405.691 220.574 405.753 220.407 405.875 220.271C406.002 220.132 406.184 220.062 406.421 220.062C406.658 220.062 406.838 220.132 406.961 220.271C407.088 220.407 407.151 220.574 407.151 220.773C407.151 220.968 407.088 221.133 406.961 221.268C406.838 221.403 406.658 221.471 406.421 221.471C406.184 221.471 406.002 221.403 405.875 221.268C405.753 221.133 405.691 220.968 405.691 220.773ZM422.341 222.398V225.781C422.227 225.951 422.045 226.141 421.795 226.353C421.546 226.56 421.201 226.742 420.761 226.898C420.325 227.051 419.762 227.127 419.072 227.127C418.509 227.127 417.991 227.03 417.517 226.835C417.047 226.636 416.639 226.348 416.292 225.972C415.949 225.591 415.683 225.13 415.492 224.588C415.306 224.042 415.213 223.424 415.213 222.734V222.017C415.213 221.327 415.293 220.712 415.454 220.17C415.619 219.628 415.86 219.169 416.178 218.792C416.495 218.412 416.884 218.124 417.346 217.929C417.807 217.73 418.336 217.631 418.933 217.631C419.639 217.631 420.23 217.754 420.704 217.999C421.182 218.24 421.554 218.575 421.821 219.002C422.092 219.429 422.265 219.916 422.341 220.462H421.116C421.061 220.128 420.951 219.823 420.786 219.548C420.625 219.273 420.395 219.053 420.094 218.888C419.794 218.718 419.407 218.634 418.933 218.634C418.505 218.634 418.135 218.712 417.822 218.869C417.509 219.025 417.25 219.25 417.047 219.542C416.844 219.833 416.692 220.187 416.59 220.602C416.493 221.016 416.444 221.484 416.444 222.004V222.734C416.444 223.268 416.506 223.744 416.628 224.163C416.755 224.582 416.935 224.939 417.168 225.235C417.401 225.527 417.678 225.75 418 225.902C418.325 226.054 418.685 226.13 419.079 226.13C419.514 226.13 419.868 226.094 420.139 226.022C420.41 225.946 420.621 225.857 420.773 225.756C420.926 225.65 421.042 225.551 421.123 225.458V223.388H418.983V222.398H422.341ZM427.045 227.127C426.567 227.127 426.133 227.047 425.744 226.886C425.359 226.721 425.026 226.49 424.747 226.194C424.472 225.898 424.26 225.546 424.112 225.14C423.964 224.734 423.89 224.29 423.89 223.807V223.541C423.89 222.982 423.973 222.485 424.138 222.049C424.303 221.609 424.527 221.236 424.811 220.932C425.094 220.627 425.416 220.396 425.775 220.24C426.135 220.083 426.507 220.005 426.893 220.005C427.383 220.005 427.807 220.09 428.162 220.259C428.522 220.428 428.816 220.665 429.044 220.97C429.273 221.27 429.442 221.626 429.552 222.036C429.662 222.442 429.717 222.887 429.717 223.369V223.896H424.588V222.938H428.543V222.849C428.526 222.544 428.463 222.248 428.353 221.96C428.247 221.672 428.077 221.435 427.845 221.249C427.612 221.063 427.295 220.97 426.893 220.97C426.626 220.97 426.381 221.027 426.156 221.141C425.932 221.251 425.739 221.416 425.579 221.636C425.418 221.856 425.293 222.125 425.204 222.442C425.115 222.76 425.071 223.126 425.071 223.541V223.807C425.071 224.133 425.115 224.44 425.204 224.728C425.297 225.011 425.431 225.261 425.604 225.477C425.782 225.692 425.995 225.862 426.245 225.984C426.499 226.107 426.787 226.168 427.108 226.168C427.523 226.168 427.874 226.084 428.162 225.915C428.45 225.745 428.702 225.519 428.917 225.235L429.628 225.8C429.48 226.025 429.292 226.238 429.063 226.441C428.835 226.645 428.554 226.81 428.219 226.937C427.889 227.063 427.498 227.127 427.045 227.127ZM433.964 220.132V221.033H430.25V220.132H433.964ZM431.507 218.462H432.682V225.299C432.682 225.532 432.718 225.707 432.79 225.826C432.861 225.944 432.955 226.022 433.069 226.061C433.183 226.099 433.306 226.118 433.437 226.118C433.534 226.118 433.636 226.109 433.742 226.092C433.852 226.071 433.934 226.054 433.989 226.042L433.996 227C433.903 227.03 433.78 227.057 433.627 227.083C433.479 227.112 433.299 227.127 433.088 227.127C432.8 227.127 432.536 227.07 432.294 226.956C432.053 226.841 431.861 226.651 431.717 226.384C431.577 226.113 431.507 225.75 431.507 225.292V218.462ZM441.441 220.132V221.033H437.728V220.132H441.441ZM438.985 218.462H440.159V225.299C440.159 225.532 440.195 225.707 440.267 225.826C440.339 225.944 440.432 226.022 440.546 226.061C440.661 226.099 440.783 226.118 440.915 226.118C441.012 226.118 441.113 226.109 441.219 226.092C441.329 226.071 441.412 226.054 441.467 226.042L441.473 227C441.38 227.03 441.257 227.057 441.105 227.083C440.957 227.112 440.777 227.127 440.565 227.127C440.278 227.127 440.013 227.07 439.772 226.956C439.531 226.841 439.338 226.651 439.194 226.384C439.055 226.113 438.985 225.75 438.985 225.292V218.462ZM442.381 223.642V223.496C442.381 223.001 442.453 222.542 442.597 222.119C442.741 221.691 442.948 221.321 443.219 221.008C443.49 220.69 443.818 220.445 444.203 220.271C444.588 220.094 445.019 220.005 445.498 220.005C445.98 220.005 446.414 220.094 446.799 220.271C447.188 220.445 447.518 220.69 447.789 221.008C448.064 221.321 448.274 221.691 448.417 222.119C448.561 222.542 448.633 223.001 448.633 223.496V223.642C448.633 224.137 448.561 224.596 448.417 225.02C448.274 225.443 448.064 225.813 447.789 226.13C447.518 226.444 447.19 226.689 446.805 226.867C446.424 227.04 445.993 227.127 445.51 227.127C445.028 227.127 444.594 227.04 444.209 226.867C443.824 226.689 443.494 226.444 443.219 226.13C442.948 225.813 442.741 225.443 442.597 225.02C442.453 224.596 442.381 224.137 442.381 223.642ZM443.555 223.496V223.642C443.555 223.985 443.595 224.309 443.676 224.613C443.756 224.914 443.877 225.18 444.038 225.413C444.203 225.646 444.408 225.83 444.653 225.965C444.899 226.097 445.184 226.162 445.51 226.162C445.832 226.162 446.113 226.097 446.354 225.965C446.6 225.83 446.803 225.646 446.964 225.413C447.125 225.18 447.245 224.914 447.326 224.613C447.41 224.309 447.453 223.985 447.453 223.642V223.496C447.453 223.158 447.41 222.838 447.326 222.538C447.245 222.233 447.123 221.964 446.958 221.731C446.797 221.494 446.594 221.308 446.348 221.173C446.107 221.037 445.823 220.97 445.498 220.97C445.176 220.97 444.892 221.037 444.647 221.173C444.406 221.308 444.203 221.494 444.038 221.731C443.877 221.964 443.756 222.233 443.676 222.538C443.595 222.838 443.555 223.158 443.555 223.496ZM457.33 225.178C457.33 225.009 457.292 224.852 457.215 224.708C457.143 224.56 456.993 224.427 456.765 224.309C456.54 224.186 456.202 224.08 455.749 223.991C455.368 223.911 455.023 223.816 454.714 223.706C454.41 223.596 454.149 223.462 453.934 223.306C453.722 223.149 453.559 222.965 453.445 222.753C453.331 222.542 453.273 222.294 453.273 222.011C453.273 221.74 453.333 221.484 453.451 221.243C453.574 221.001 453.745 220.788 453.965 220.602C454.19 220.415 454.458 220.269 454.771 220.164C455.085 220.058 455.434 220.005 455.819 220.005C456.369 220.005 456.839 220.102 457.228 220.297C457.617 220.492 457.916 220.752 458.123 221.078C458.33 221.399 458.434 221.757 458.434 222.15H457.26C457.26 221.96 457.203 221.776 457.088 221.598C456.978 221.416 456.815 221.266 456.6 221.147C456.388 221.029 456.128 220.97 455.819 220.97C455.493 220.97 455.229 221.021 455.025 221.122C454.826 221.219 454.681 221.344 454.587 221.497C454.499 221.649 454.454 221.81 454.454 221.979C454.454 222.106 454.475 222.22 454.518 222.322C454.564 222.419 454.645 222.51 454.759 222.595C454.873 222.675 455.034 222.751 455.241 222.823C455.449 222.895 455.713 222.967 456.035 223.039C456.597 223.166 457.061 223.318 457.425 223.496C457.789 223.674 458.06 223.892 458.237 224.15C458.415 224.408 458.504 224.721 458.504 225.089C458.504 225.39 458.44 225.665 458.313 225.915C458.191 226.164 458.011 226.38 457.774 226.562C457.541 226.74 457.262 226.879 456.936 226.981C456.614 227.078 456.253 227.127 455.851 227.127C455.245 227.127 454.733 227.019 454.314 226.803C453.896 226.587 453.578 226.308 453.362 225.965C453.146 225.623 453.039 225.261 453.039 224.88H454.219C454.236 225.201 454.329 225.458 454.499 225.648C454.668 225.834 454.875 225.967 455.121 226.048C455.366 226.124 455.609 226.162 455.851 226.162C456.172 226.162 456.441 226.12 456.657 226.035C456.877 225.951 457.044 225.834 457.158 225.686C457.272 225.538 457.33 225.369 457.33 225.178ZM464.096 225.826V222.29C464.096 222.019 464.041 221.784 463.931 221.585C463.825 221.382 463.665 221.226 463.449 221.116C463.233 221.006 462.966 220.951 462.649 220.951C462.353 220.951 462.092 221.001 461.868 221.103C461.648 221.205 461.475 221.338 461.348 221.503C461.225 221.668 461.164 221.846 461.164 222.036H459.989C459.989 221.791 460.053 221.547 460.18 221.306C460.307 221.065 460.489 220.847 460.726 220.652C460.967 220.453 461.255 220.297 461.589 220.183C461.927 220.064 462.304 220.005 462.719 220.005C463.218 220.005 463.658 220.09 464.039 220.259C464.424 220.428 464.725 220.684 464.94 221.027C465.16 221.365 465.271 221.791 465.271 222.303V225.502C465.271 225.73 465.29 225.974 465.328 226.232C465.37 226.49 465.431 226.712 465.512 226.898V227H464.287C464.227 226.865 464.181 226.685 464.147 226.46C464.113 226.232 464.096 226.02 464.096 225.826ZM464.299 222.836L464.312 223.661H463.125C462.791 223.661 462.492 223.689 462.23 223.744C461.968 223.794 461.748 223.873 461.57 223.979C461.392 224.084 461.257 224.218 461.164 224.378C461.07 224.535 461.024 224.719 461.024 224.931C461.024 225.146 461.073 225.343 461.17 225.521C461.267 225.699 461.413 225.84 461.608 225.946C461.807 226.048 462.05 226.099 462.338 226.099C462.698 226.099 463.015 226.022 463.29 225.87C463.565 225.718 463.783 225.532 463.944 225.312C464.109 225.091 464.198 224.878 464.21 224.67L464.712 225.235C464.682 225.413 464.602 225.61 464.471 225.826C464.34 226.042 464.164 226.249 463.944 226.448C463.728 226.642 463.47 226.805 463.169 226.937C462.873 227.063 462.539 227.127 462.167 227.127C461.701 227.127 461.293 227.036 460.941 226.854C460.594 226.672 460.324 226.429 460.129 226.124C459.938 225.815 459.843 225.47 459.843 225.089C459.843 224.721 459.915 224.397 460.059 224.118C460.203 223.835 460.41 223.6 460.681 223.414C460.952 223.223 461.278 223.079 461.659 222.982C462.04 222.885 462.465 222.836 462.935 222.836H464.299ZM468.87 227H467.695V219.408C467.695 218.913 467.784 218.496 467.962 218.158C468.144 217.815 468.404 217.557 468.743 217.383C469.081 217.206 469.483 217.117 469.949 217.117C470.084 217.117 470.22 217.125 470.355 217.142C470.495 217.159 470.63 217.184 470.761 217.218L470.698 218.177C470.609 218.156 470.507 218.141 470.393 218.132C470.283 218.124 470.173 218.12 470.063 218.12C469.813 218.12 469.597 218.17 469.416 218.272C469.238 218.369 469.102 218.513 469.009 218.704C468.916 218.894 468.87 219.129 468.87 219.408V227ZM470.33 220.132V221.033H466.61V220.132H470.33ZM474.335 227.127C473.857 227.127 473.423 227.047 473.034 226.886C472.649 226.721 472.316 226.49 472.037 226.194C471.762 225.898 471.55 225.546 471.402 225.14C471.254 224.734 471.18 224.29 471.18 223.807V223.541C471.18 222.982 471.263 222.485 471.428 222.049C471.593 221.609 471.817 221.236 472.101 220.932C472.384 220.627 472.706 220.396 473.065 220.24C473.425 220.083 473.798 220.005 474.183 220.005C474.674 220.005 475.097 220.09 475.452 220.259C475.812 220.428 476.106 220.665 476.334 220.97C476.563 221.27 476.732 221.626 476.842 222.036C476.952 222.442 477.007 222.887 477.007 223.369V223.896H471.878V222.938H475.833V222.849C475.816 222.544 475.753 222.248 475.643 221.96C475.537 221.672 475.368 221.435 475.135 221.249C474.902 221.063 474.585 220.97 474.183 220.97C473.916 220.97 473.671 221.027 473.446 221.141C473.222 221.251 473.029 221.416 472.869 221.636C472.708 221.856 472.583 222.125 472.494 222.442C472.405 222.76 472.361 223.126 472.361 223.541V223.807C472.361 224.133 472.405 224.44 472.494 224.728C472.587 225.011 472.721 225.261 472.894 225.477C473.072 225.692 473.285 225.862 473.535 225.984C473.789 226.107 474.077 226.168 474.398 226.168C474.813 226.168 475.164 226.084 475.452 225.915C475.74 225.745 475.992 225.519 476.208 225.235L476.918 225.8C476.77 226.025 476.582 226.238 476.354 226.441C476.125 226.645 475.844 226.81 475.509 226.937C475.179 227.063 474.788 227.127 474.335 227.127ZM486.719 226.035V227H481.724V226.035H486.719ZM486.535 220.963L481.99 227H481.273V226.137L485.786 220.132H486.535V220.963ZM486.015 220.132V221.103H481.324V220.132H486.015ZM487.64 223.642V223.496C487.64 223.001 487.712 222.542 487.855 222.119C487.999 221.691 488.207 221.321 488.478 221.008C488.748 220.69 489.076 220.445 489.461 220.271C489.847 220.094 490.278 220.005 490.756 220.005C491.239 220.005 491.673 220.094 492.058 220.271C492.447 220.445 492.777 220.69 493.048 221.008C493.323 221.321 493.532 221.691 493.676 222.119C493.82 222.542 493.892 223.001 493.892 223.496V223.642C493.892 224.137 493.82 224.596 493.676 225.02C493.532 225.443 493.323 225.813 493.048 226.13C492.777 226.444 492.449 226.689 492.064 226.867C491.683 227.04 491.251 227.127 490.769 227.127C490.287 227.127 489.853 227.04 489.468 226.867C489.083 226.689 488.753 226.444 488.478 226.13C488.207 225.813 487.999 225.443 487.855 225.02C487.712 224.596 487.64 224.137 487.64 223.642ZM488.814 223.496V223.642C488.814 223.985 488.854 224.309 488.935 224.613C489.015 224.914 489.136 225.18 489.296 225.413C489.461 225.646 489.667 225.83 489.912 225.965C490.158 226.097 490.443 226.162 490.769 226.162C491.091 226.162 491.372 226.097 491.613 225.965C491.859 225.83 492.062 225.646 492.223 225.413C492.383 225.18 492.504 224.914 492.584 224.613C492.669 224.309 492.711 223.985 492.711 223.642V223.496C492.711 223.158 492.669 222.838 492.584 222.538C492.504 222.233 492.381 221.964 492.216 221.731C492.056 221.494 491.852 221.308 491.607 221.173C491.366 221.037 491.082 220.97 490.756 220.97C490.435 220.97 490.151 221.037 489.906 221.173C489.665 221.308 489.461 221.494 489.296 221.731C489.136 221.964 489.015 222.233 488.935 222.538C488.854 222.838 488.814 223.158 488.814 223.496ZM496.539 221.598V227H495.365V220.132H496.476L496.539 221.598ZM496.26 223.306L495.771 223.287C495.775 222.817 495.845 222.383 495.98 221.985C496.116 221.583 496.306 221.234 496.552 220.938C496.797 220.642 497.089 220.413 497.428 220.252C497.771 220.087 498.149 220.005 498.564 220.005C498.903 220.005 499.207 220.051 499.478 220.145C499.749 220.233 499.979 220.377 500.17 220.576C500.365 220.775 500.513 221.033 500.614 221.351C500.716 221.664 500.767 222.047 500.767 222.5V227H499.586V222.487C499.586 222.127 499.533 221.839 499.427 221.624C499.321 221.403 499.167 221.245 498.964 221.147C498.761 221.046 498.511 220.995 498.215 220.995C497.923 220.995 497.656 221.056 497.415 221.179C497.178 221.302 496.973 221.471 496.799 221.687C496.63 221.903 496.497 222.15 496.399 222.43C496.306 222.705 496.26 222.997 496.26 223.306ZM505.4 227.127C504.922 227.127 504.488 227.047 504.099 226.886C503.714 226.721 503.382 226.49 503.103 226.194C502.827 225.898 502.616 225.546 502.468 225.14C502.32 224.734 502.246 224.29 502.246 223.807V223.541C502.246 222.982 502.328 222.485 502.493 222.049C502.658 221.609 502.882 221.236 503.166 220.932C503.45 220.627 503.771 220.396 504.131 220.24C504.491 220.083 504.863 220.005 505.248 220.005C505.739 220.005 506.162 220.09 506.518 220.259C506.877 220.428 507.171 220.665 507.4 220.97C507.628 221.27 507.798 221.626 507.908 222.036C508.018 222.442 508.073 222.887 508.073 223.369V223.896H502.944V222.938H506.898V222.849C506.882 222.544 506.818 222.248 506.708 221.96C506.602 221.672 506.433 221.435 506.2 221.249C505.967 221.063 505.65 220.97 505.248 220.97C504.981 220.97 504.736 221.027 504.512 221.141C504.287 221.251 504.095 221.416 503.934 221.636C503.773 221.856 503.648 222.125 503.56 222.442C503.471 222.76 503.426 223.126 503.426 223.541V223.807C503.426 224.133 503.471 224.44 503.56 224.728C503.653 225.011 503.786 225.261 503.959 225.477C504.137 225.692 504.351 225.862 504.601 225.984C504.854 226.107 505.142 226.168 505.464 226.168C505.879 226.168 506.23 226.084 506.518 225.915C506.805 225.745 507.057 225.519 507.273 225.235L507.984 225.8C507.836 226.025 507.647 226.238 507.419 226.441C507.19 226.645 506.909 226.81 506.575 226.937C506.245 227.063 505.853 227.127 505.4 227.127ZM515.544 220.132V221.033H511.831V220.132H515.544ZM513.087 218.462H514.262V225.299C514.262 225.532 514.298 225.707 514.37 225.826C514.442 225.944 514.535 226.022 514.649 226.061C514.763 226.099 514.886 226.118 515.017 226.118C515.114 226.118 515.216 226.109 515.322 226.092C515.432 226.071 515.514 226.054 515.569 226.042L515.576 227C515.483 227.03 515.36 227.057 515.208 227.083C515.059 227.112 514.88 227.127 514.668 227.127C514.38 227.127 514.116 227.07 513.875 226.956C513.633 226.841 513.441 226.651 513.297 226.384C513.157 226.113 513.087 225.75 513.087 225.292V218.462ZM516.483 223.642V223.496C516.483 223.001 516.555 222.542 516.699 222.119C516.843 221.691 517.05 221.321 517.321 221.008C517.592 220.69 517.92 220.445 518.305 220.271C518.69 220.094 519.122 220.005 519.6 220.005C520.083 220.005 520.516 220.094 520.901 220.271C521.291 220.445 521.621 220.69 521.892 221.008C522.167 221.321 522.376 221.691 522.52 222.119C522.664 222.542 522.736 223.001 522.736 223.496V223.642C522.736 224.137 522.664 224.596 522.52 225.02C522.376 225.443 522.167 225.813 521.892 226.13C521.621 226.444 521.293 226.689 520.908 226.867C520.527 227.04 520.095 227.127 519.613 227.127C519.13 227.127 518.697 227.04 518.312 226.867C517.926 226.689 517.596 226.444 517.321 226.13C517.05 225.813 516.843 225.443 516.699 225.02C516.555 224.596 516.483 224.137 516.483 223.642ZM517.658 223.496V223.642C517.658 223.985 517.698 224.309 517.778 224.613C517.859 224.914 517.979 225.18 518.14 225.413C518.305 225.646 518.51 225.83 518.756 225.965C519.001 226.097 519.287 226.162 519.613 226.162C519.934 226.162 520.216 226.097 520.457 225.965C520.702 225.83 520.906 225.646 521.066 225.413C521.227 225.18 521.348 224.914 521.428 224.613C521.513 224.309 521.555 223.985 521.555 223.642V223.496C521.555 223.158 521.513 222.838 521.428 222.538C521.348 222.233 521.225 221.964 521.06 221.731C520.899 221.494 520.696 221.308 520.451 221.173C520.209 221.037 519.926 220.97 519.6 220.97C519.278 220.97 518.995 221.037 518.75 221.173C518.508 221.308 518.305 221.494 518.14 221.731C517.979 221.964 517.859 222.233 517.778 222.538C517.698 222.838 517.658 223.158 517.658 223.496ZM531.432 225.178C531.432 225.009 531.394 224.852 531.318 224.708C531.246 224.56 531.096 224.427 530.867 224.309C530.643 224.186 530.304 224.08 529.852 223.991C529.471 223.911 529.126 223.816 528.817 223.706C528.512 223.596 528.252 223.462 528.036 223.306C527.825 223.149 527.662 222.965 527.547 222.753C527.433 222.542 527.376 222.294 527.376 222.011C527.376 221.74 527.435 221.484 527.554 221.243C527.676 221.001 527.848 220.788 528.068 220.602C528.292 220.415 528.561 220.269 528.874 220.164C529.187 220.058 529.536 220.005 529.921 220.005C530.472 220.005 530.941 220.102 531.331 220.297C531.72 220.492 532.018 220.752 532.226 221.078C532.433 221.399 532.537 221.757 532.537 222.15H531.362C531.362 221.96 531.305 221.776 531.191 221.598C531.081 221.416 530.918 221.266 530.702 221.147C530.491 221.029 530.23 220.97 529.921 220.97C529.596 220.97 529.331 221.021 529.128 221.122C528.929 221.219 528.783 221.344 528.69 221.497C528.601 221.649 528.557 221.81 528.557 221.979C528.557 222.106 528.578 222.22 528.62 222.322C528.667 222.419 528.747 222.51 528.861 222.595C528.976 222.675 529.136 222.751 529.344 222.823C529.551 222.895 529.816 222.967 530.137 223.039C530.7 223.166 531.163 223.318 531.527 223.496C531.891 223.674 532.162 223.892 532.34 224.15C532.518 224.408 532.606 224.721 532.606 225.089C532.606 225.39 532.543 225.665 532.416 225.915C532.293 226.164 532.113 226.38 531.876 226.562C531.644 226.74 531.364 226.879 531.039 226.981C530.717 227.078 530.355 227.127 529.953 227.127C529.348 227.127 528.836 227.019 528.417 226.803C527.998 226.587 527.681 226.308 527.465 225.965C527.249 225.623 527.141 225.261 527.141 224.88H528.322C528.339 225.201 528.432 225.458 528.601 225.648C528.77 225.834 528.978 225.967 529.223 226.048C529.469 226.124 529.712 226.162 529.953 226.162C530.275 226.162 530.543 226.12 530.759 226.035C530.979 225.951 531.146 225.834 531.261 225.686C531.375 225.538 531.432 225.369 531.432 225.178ZM538.199 225.826V222.29C538.199 222.019 538.144 221.784 538.034 221.585C537.928 221.382 537.767 221.226 537.551 221.116C537.335 221.006 537.069 220.951 536.751 220.951C536.455 220.951 536.195 221.001 535.971 221.103C535.751 221.205 535.577 221.338 535.45 221.503C535.327 221.668 535.266 221.846 535.266 222.036H534.092C534.092 221.791 534.155 221.547 534.282 221.306C534.409 221.065 534.591 220.847 534.828 220.652C535.069 220.453 535.357 220.297 535.691 220.183C536.03 220.064 536.407 220.005 536.821 220.005C537.321 220.005 537.761 220.09 538.142 220.259C538.527 220.428 538.827 220.684 539.043 221.027C539.263 221.365 539.373 221.791 539.373 222.303V225.502C539.373 225.73 539.392 225.974 539.43 226.232C539.472 226.49 539.534 226.712 539.614 226.898V227H538.389C538.33 226.865 538.283 226.685 538.25 226.46C538.216 226.232 538.199 226.02 538.199 225.826ZM538.402 222.836L538.415 223.661H537.228C536.893 223.661 536.595 223.689 536.333 223.744C536.07 223.794 535.85 223.873 535.672 223.979C535.495 224.084 535.359 224.218 535.266 224.378C535.173 224.535 535.126 224.719 535.126 224.931C535.126 225.146 535.175 225.343 535.272 225.521C535.37 225.699 535.516 225.84 535.71 225.946C535.909 226.048 536.153 226.099 536.44 226.099C536.8 226.099 537.118 226.022 537.393 225.87C537.668 225.718 537.886 225.532 538.046 225.312C538.211 225.091 538.3 224.878 538.313 224.67L538.814 225.235C538.785 225.413 538.704 225.61 538.573 225.826C538.442 226.042 538.266 226.249 538.046 226.448C537.831 226.642 537.572 226.805 537.272 226.937C536.976 227.063 536.641 227.127 536.269 227.127C535.804 227.127 535.395 227.036 535.044 226.854C534.697 226.672 534.426 226.429 534.231 226.124C534.041 225.815 533.946 225.47 533.946 225.089C533.946 224.721 534.018 224.397 534.162 224.118C534.306 223.835 534.513 223.6 534.784 223.414C535.055 223.223 535.38 223.079 535.761 222.982C536.142 222.885 536.567 222.836 537.037 222.836H538.402ZM543.207 225.94L545.086 220.132H546.286L543.816 227H543.029L543.207 225.94ZM541.639 220.132L543.575 225.972L543.708 227H542.921L540.433 220.132H541.639ZM550.177 227.127C549.699 227.127 549.265 227.047 548.875 226.886C548.49 226.721 548.158 226.49 547.879 226.194C547.604 225.898 547.392 225.546 547.244 225.14C547.096 224.734 547.022 224.29 547.022 223.807V223.541C547.022 222.982 547.104 222.485 547.27 222.049C547.435 221.609 547.659 221.236 547.942 220.932C548.226 220.627 548.548 220.396 548.907 220.24C549.267 220.083 549.639 220.005 550.024 220.005C550.515 220.005 550.938 220.09 551.294 220.259C551.654 220.428 551.948 220.665 552.176 220.97C552.405 221.27 552.574 221.626 552.684 222.036C552.794 222.442 552.849 222.887 552.849 223.369V223.896H547.72V222.938H551.675V222.849C551.658 222.544 551.594 222.248 551.484 221.96C551.379 221.672 551.209 221.435 550.977 221.249C550.744 221.063 550.426 220.97 550.024 220.97C549.758 220.97 549.512 221.027 549.288 221.141C549.064 221.251 548.871 221.416 548.71 221.636C548.55 221.856 548.425 222.125 548.336 222.442C548.247 222.76 548.203 223.126 548.203 223.541V223.807C548.203 224.133 548.247 224.44 548.336 224.728C548.429 225.011 548.562 225.261 548.736 225.477C548.914 225.692 549.127 225.862 549.377 225.984C549.631 226.107 549.919 226.168 550.24 226.168C550.655 226.168 551.006 226.084 551.294 225.915C551.582 225.745 551.833 225.519 552.049 225.235L552.76 225.8C552.612 226.025 552.424 226.238 552.195 226.441C551.967 226.645 551.685 226.81 551.351 226.937C551.021 227.063 550.63 227.127 550.177 227.127Z" fill="#DABE92"/>
<path d="M387 331C387 332.105 386.105 333 385 333L276 333C274.895 333 274 332.105 274 331L274 277C274 275.895 274.895 275 276 275L385 275C386.105 275 387 275.895 387 277L387 331Z" fill="#E88F00"/>
<rect x="278" y="279" width="105" height="50" rx="1" stroke="#353535" stroke-width="3"/>
<rect x="545" y="283" width="113" height="44" fill="#353535"/>
<path d="M577.457 294.672L582.994 305.38L588.546 294.672H591.754L584.4 308.031V316H581.573V308.031L574.22 294.672H577.457ZM608.043 313.7V316H596.749V313.7H608.043ZM597.32 294.672V316H594.493V294.672H597.32ZM606.549 303.842V306.142H596.749V303.842H606.549ZM607.896 294.672V296.986H596.749V294.672H607.896ZM622.911 310.609C622.911 310.111 622.833 309.672 622.677 309.291C622.53 308.9 622.267 308.549 621.886 308.236C621.515 307.924 620.997 307.626 620.333 307.343C619.679 307.06 618.849 306.771 617.843 306.479C616.788 306.166 615.836 305.819 614.986 305.438C614.137 305.048 613.409 304.604 612.804 304.105C612.198 303.607 611.734 303.036 611.412 302.392C611.09 301.747 610.929 301.01 610.929 300.18C610.929 299.35 611.1 298.583 611.441 297.88C611.783 297.177 612.271 296.566 612.906 296.049C613.551 295.521 614.317 295.111 615.206 294.818C616.095 294.525 617.086 294.379 618.18 294.379C619.781 294.379 621.139 294.687 622.252 295.302C623.375 295.907 624.229 296.703 624.815 297.689C625.401 298.666 625.694 299.711 625.694 300.824H622.882C622.882 300.023 622.711 299.315 622.369 298.7C622.027 298.075 621.51 297.587 620.816 297.235C620.123 296.874 619.244 296.693 618.18 296.693C617.174 296.693 616.344 296.845 615.689 297.147C615.035 297.45 614.547 297.86 614.225 298.378C613.912 298.896 613.756 299.486 613.756 300.15C613.756 300.6 613.849 301.01 614.034 301.381C614.229 301.742 614.527 302.079 614.928 302.392C615.338 302.704 615.855 302.992 616.48 303.256C617.115 303.52 617.872 303.773 618.751 304.018C619.962 304.359 621.007 304.74 621.886 305.16C622.765 305.58 623.487 306.054 624.054 306.581C624.63 307.099 625.055 307.689 625.328 308.354C625.611 309.008 625.753 309.75 625.753 310.58C625.753 311.449 625.577 312.235 625.226 312.938C624.874 313.642 624.371 314.242 623.717 314.74C623.062 315.238 622.276 315.624 621.358 315.897C620.45 316.161 619.435 316.293 618.312 316.293C617.325 316.293 616.354 316.156 615.396 315.883C614.449 315.609 613.585 315.199 612.804 314.652C612.032 314.105 611.412 313.432 610.943 312.631C610.484 311.82 610.255 310.883 610.255 309.818H613.067C613.067 310.551 613.209 311.181 613.492 311.708C613.775 312.226 614.161 312.655 614.649 312.997C615.147 313.339 615.709 313.593 616.334 313.759C616.969 313.915 617.628 313.993 618.312 313.993C619.298 313.993 620.133 313.856 620.816 313.583C621.5 313.31 622.018 312.919 622.369 312.411C622.73 311.903 622.911 311.303 622.911 310.609Z" fill="#E88F00"/>
<path d="M324.228 316.5L323.784 315.82L315.803 303.592L315.803 316.5L309.976 316.5L309.976 292.172L315.114 292.172L315.559 292.852L323.584 305.129L323.584 292.172L329.382 292.172L329.382 316.5L324.228 316.5ZM351.713 305.01C351.713 306.734 351.497 308.326 351.042 309.768C350.59 311.2 349.926 312.462 349.028 313.522C348.132 314.582 347.045 315.4 345.782 315.961L345.781 315.96C344.521 316.524 343.138 316.793 341.658 316.793C340.208 316.793 338.84 316.522 337.577 315.961L337.572 315.958C336.323 315.398 335.239 314.586 334.329 313.537L334.322 313.53C333.417 312.474 332.737 311.216 332.265 309.787C331.786 308.339 331.56 306.741 331.56 305.01L331.56 303.662C331.56 301.935 331.78 300.343 332.248 298.905L332.25 298.899C332.723 297.471 333.402 296.213 334.308 295.156C335.209 294.095 336.29 293.276 337.543 292.714L337.548 292.711C338.811 292.15 340.179 291.879 341.629 291.879C343.108 291.879 344.491 292.147 345.752 292.711L345.753 292.711C347.014 293.272 348.098 294.092 348.992 295.156C349.899 296.215 350.57 297.475 351.022 298.905L351.023 298.905C351.491 300.343 351.713 301.935 351.713 303.662L351.713 305.01ZM333.069 305.603L333.094 306.108C333.095 306.122 333.097 306.136 333.098 306.149C333.086 305.969 333.076 305.787 333.069 305.603ZM333.42 300.284C333.418 300.294 333.416 300.304 333.414 300.313C333.45 300.157 333.488 300.002 333.53 299.851L333.42 300.284ZM345.915 303.633C345.915 302.463 345.793 301.476 345.571 300.654L345.567 300.642C345.352 299.814 345.05 299.181 344.691 298.703C344.334 298.227 343.912 297.884 343.419 297.65L343.412 297.646C342.93 297.415 342.346 297.281 341.629 297.281C340.949 297.281 340.378 297.412 339.89 297.646L339.889 297.646C339.413 297.878 338.99 298.225 338.616 298.714C338.255 299.199 337.944 299.838 337.712 300.668C337.483 301.485 337.357 302.467 337.357 303.633L337.357 305.01C337.357 306.184 337.483 307.177 337.712 308.004L337.803 308.308C338.023 308.989 338.304 309.535 338.628 309.969C339.012 310.46 339.442 310.807 339.918 311.04L339.919 311.04C340.408 311.274 340.979 311.405 341.658 311.405C342.388 311.405 342.976 311.27 343.456 311.04C343.937 310.809 344.348 310.47 344.697 309.995L344.699 309.992C345.063 309.5 345.367 308.858 345.582 308.03C345.797 307.193 345.915 306.192 345.915 305.01L345.915 303.633ZM344.797 293.937C344.79 293.934 344.783 293.931 344.775 293.929C344.9 293.977 345.023 294.028 345.145 294.082L344.797 293.937ZM345.174 314.59L345.515 314.429C345.526 314.423 345.537 314.416 345.549 314.41C345.426 314.473 345.301 314.533 345.174 314.59ZM347.884 312.554L348.124 312.255C348.128 312.249 348.132 312.243 348.137 312.237C348.055 312.345 347.971 312.451 347.884 312.554ZM349.295 298.532C349.277 298.488 349.26 298.445 349.241 298.401C349.26 298.445 349.277 298.488 349.295 298.532ZM349.439 298.903C349.43 298.876 349.419 298.85 349.409 298.823C349.426 298.867 349.442 298.912 349.458 298.956C349.452 298.938 349.446 298.921 349.439 298.903ZM349.612 309.316L349.736 308.894C349.74 308.882 349.743 308.87 349.746 308.858C349.704 309.013 349.66 309.166 349.612 309.316Z" fill="#353535"/>
</g>
<defs>
<clipPath id="clip0_253_530">
<rect width="430" height="932" fill="white" transform="translate(932) rotate(90)"/>
</clipPath>
</defs>
</svg>
