<svg width="51" height="51" viewBox="0 0 51 51" fill="none" xmlns="http://www.w3.org/2000/svg">
<g clip-path="url(#clip0_168_664)">
<path d="M0 18.1357C0 11.7876 0 8.61355 1.23542 6.1889C2.32212 4.05613 4.05613 2.32212 6.1889 1.23542C8.61355 0 11.7876 0 18.1357 0H31.976C38.3241 0 41.4982 0 43.9228 1.23542C46.0556 2.32212 47.7896 4.05613 48.8763 6.1889C50.1117 8.61355 50.1117 11.7876 50.1117 18.1357V31.976C50.1117 38.3241 50.1117 41.4982 48.8763 43.9228C47.7896 46.0556 46.0556 47.7896 43.9228 48.8763C41.4982 50.1117 38.3241 50.1117 31.976 50.1117H18.1357C11.7876 50.1117 8.61355 50.1117 6.1889 48.8763C4.05613 47.7896 2.32212 46.0556 1.23542 43.9228C0 41.4982 0 38.3241 0 31.976V18.1357Z" fill="#242424"/>
<path d="M14.0795 25.7719C7.0997 30.909 5.72754 38.4191 5.72754 44.6831C6.04571 42.8138 7.50531 38.431 10.7984 35.8538C15.6902 32.0254 24.6387 33.2866 34.4225 26.786C44.2062 20.2854 45.1607 11.8122 43.9079 5.30957C43.0374 11.5841 40.067 14.3186 35.9735 16.7637C27.0847 22.0731 21.5366 20.2834 14.0795 25.7719Z" fill="url(#paint0_linear_168_664)"/>
<path d="M14.0795 25.7719C7.0997 30.909 5.72754 38.4191 5.72754 44.6831C6.04571 42.8138 7.50531 38.431 10.7984 35.8538C15.6902 32.0254 24.6387 33.2866 34.4225 26.786C44.2062 20.2854 45.1607 11.8122 43.9079 5.30957C43.0374 11.5841 40.067 14.3186 35.9735 16.7637C27.0847 22.0731 21.5366 20.2834 14.0795 25.7719Z" fill="url(#paint1_linear_168_664)"/>
<path d="M5.81055 42.1151C6.19355 36.4552 8.03134 30.2226 14.079 25.7715C17.9666 22.9103 21.3353 22.0271 24.929 21.0849C27.0262 20.535 29.2 19.9651 31.5983 18.9702C30.7233 19.8059 26.5656 21.7567 23.4295 23.0601C20.3016 24.3601 17.0038 25.7307 14.258 27.5612C8.74897 31.2339 6.50894 37.6239 5.81055 42.1151Z" fill="url(#paint2_linear_168_664)"/>
<path d="M5.81055 42.1151C6.19355 36.4552 8.03134 30.2226 14.079 25.7715C17.9666 22.9103 21.3353 22.0271 24.929 21.0849C27.0262 20.535 29.2 19.9651 31.5983 18.9702C30.7233 19.8059 26.5656 21.7567 23.4295 23.0601C20.3016 24.3601 17.0038 25.7307 14.258 27.5612C8.74897 31.2339 6.50894 37.6239 5.81055 42.1151Z" fill="url(#paint3_linear_168_664)"/>
<path d="M39.7636 22.1402C39.0776 22.8121 38.3128 23.4137 37.465 23.9223C33.647 26.2132 29.5887 26.9519 25.6399 27.6708C22.4932 28.2436 19.416 28.8038 16.5851 30.1266C10.2023 33.1093 6.26504 39.313 5.72772 44.6818C5.72768 44.6821 5.72764 44.6823 5.7276 44.6825C5.72758 44.6815 5.72756 44.6806 5.72754 44.6796C5.72757 44.2698 5.73348 43.8546 5.74645 43.4352C5.77897 42.7697 5.84777 42.0323 5.96162 41.246C6.80428 36.8306 9.09611 31.003 14.2585 27.5614C16.4439 26.1044 18.9789 24.9389 21.4996 23.8683C23.7164 23.1405 25.7144 22.6876 27.6179 22.256C30.6144 21.5767 33.3769 20.9504 36.3912 19.3884C42.7162 16.1109 44.3733 9.37585 43.9278 5.41406C44.8735 10.434 44.4912 16.6082 39.7636 22.1402Z" fill="url(#paint4_linear_168_664)"/>
<path d="M39.7633 22.1401C39.0773 22.812 38.3125 23.4136 37.4648 23.9222C33.6468 26.213 29.5885 26.9518 25.6397 27.6706C22.493 28.2435 19.4157 28.8037 16.5849 30.1265C12.9141 31.8418 10.0522 34.6224 8.18066 37.697C9.832 35.3766 12.3477 32.7844 15.4514 31.7969C18.48 30.8332 21.3689 30.7336 24.3701 30.6302C25.2303 30.6005 26.0997 30.5706 26.9843 30.5199C29.3683 29.652 31.8668 28.4836 34.4222 26.7857C36.6249 25.3222 38.3801 23.7586 39.7633 22.1401Z" fill="url(#paint5_linear_168_664)"/>
<path d="M39.7633 22.1401C39.0773 22.812 38.3125 23.4136 37.4648 23.9222C33.6468 26.213 29.5885 26.9518 25.6397 27.6706C22.493 28.2435 19.4157 28.8037 16.5849 30.1265C12.9141 31.8418 10.0522 34.6224 8.18066 37.697C9.832 35.3766 12.3477 32.7844 15.4514 31.7969C18.48 30.8332 21.3689 30.7336 24.3701 30.6302C25.2303 30.6005 26.0997 30.5706 26.9843 30.5199C29.3683 29.652 31.8668 28.4836 34.4222 26.7857C36.6249 25.3222 38.3801 23.7586 39.7633 22.1401Z" fill="url(#paint6_linear_168_664)"/>
<path d="M43.9272 5.41422C43.9206 5.37928 43.9139 5.3444 43.9072 5.30957C43.0368 11.5841 40.0663 14.3186 35.9729 16.7637C34.4222 17.6899 32.9732 18.4001 31.598 18.9706C30.7229 19.8063 26.5653 21.757 23.4293 23.0604L23.4288 23.0606C22.7906 23.3258 22.1453 23.594 21.499 23.8685C23.7158 23.1407 25.7137 22.6877 27.6172 22.2562C30.6137 21.5768 33.3762 20.9505 36.3905 19.3886C42.7155 16.1111 44.3726 9.37601 43.9272 5.41422Z" fill="url(#paint7_linear_168_664)"/>
<path d="M43.9272 5.41422C43.9206 5.37928 43.9139 5.3444 43.9072 5.30957C43.0368 11.5841 40.0663 14.3186 35.9729 16.7637C34.4222 17.6899 32.9732 18.4001 31.598 18.9706C30.7229 19.8063 26.5653 21.757 23.4293 23.0604L23.4288 23.0606C22.7906 23.3258 22.1453 23.594 21.499 23.8685C23.7158 23.1407 25.7137 22.6877 27.6172 22.2562C30.6137 21.5768 33.3762 20.9505 36.3905 19.3886C42.7155 16.1111 44.3726 9.37601 43.9272 5.41422Z" fill="url(#paint8_linear_168_664)"/>
</g>
<defs>
<linearGradient id="paint0_linear_168_664" x1="27.5619" y1="28.9933" x2="6.92067" y2="43.7882" gradientUnits="userSpaceOnUse">
<stop stop-color="#FE5004"/>
<stop offset="0.602538" stop-color="#FFB915"/>
<stop offset="1" stop-color="#FFFC41"/>
</linearGradient>
<linearGradient id="paint1_linear_168_664" x1="19.3889" y1="30.2461" x2="19.5083" y2="32.3938" gradientUnits="userSpaceOnUse">
<stop stop-color="#FD3E00"/>
<stop offset="1" stop-color="#FD4400" stop-opacity="0"/>
</linearGradient>
<linearGradient id="paint2_linear_168_664" x1="31.6181" y1="17.8969" x2="2.5056" y2="43.7879" gradientUnits="userSpaceOnUse">
<stop stop-color="#005FC6"/>
<stop offset="0.279756" stop-color="#23A4DF"/>
<stop offset="0.465158" stop-color="#3AC2B7"/>
<stop offset="0.640642" stop-color="#60EC7A"/>
<stop offset="0.818668" stop-color="#CFFDBD"/>
<stop offset="1" stop-color="#D0FCB6"/>
</linearGradient>
<linearGradient id="paint3_linear_168_664" x1="25.7121" y1="22.8484" x2="23.2065" y2="20.5814" gradientUnits="userSpaceOnUse">
<stop stop-color="#0061CB"/>
<stop offset="1" stop-color="#067EEA" stop-opacity="0"/>
</linearGradient>
<linearGradient id="paint4_linear_168_664" x1="44.0272" y1="5.36907" x2="5.72754" y2="44.6232" gradientUnits="userSpaceOnUse">
<stop stop-color="#8E55F1"/>
<stop offset="0.140795" stop-color="#8B48DF"/>
<stop offset="0.274905" stop-color="#E04DD9"/>
<stop offset="0.492309" stop-color="#F496C8"/>
<stop offset="0.633104" stop-color="#FAD2BA"/>
<stop offset="0.856964" stop-color="#FEF7E5"/>
<stop offset="1" stop-color="#FFF5BF"/>
</linearGradient>
<linearGradient id="paint5_linear_168_664" x1="40.2686" y1="21.7745" x2="9.0084" y2="35.9132" gradientUnits="userSpaceOnUse">
<stop stop-color="#F41A73"/>
<stop offset="0.399909" stop-color="#FC50A3"/>
<stop offset="0.584511" stop-color="#FE9485"/>
<stop offset="0.703104" stop-color="#FFAF88"/>
<stop offset="1" stop-color="#FFC385"/>
</linearGradient>
<linearGradient id="paint6_linear_168_664" x1="28.9934" y1="26.1295" x2="29.0531" y2="28.993" gradientUnits="userSpaceOnUse">
<stop stop-color="#9B0008"/>
<stop offset="1" stop-color="#EA115A" stop-opacity="0"/>
</linearGradient>
<linearGradient id="paint7_linear_168_664" x1="44.0265" y1="8.59069" x2="15.8089" y2="27.0246" gradientUnits="userSpaceOnUse">
<stop stop-color="#231283"/>
<stop offset="0.362865" stop-color="#7053C6"/>
<stop offset="0.466353" stop-color="#7272DB"/>
<stop offset="0.634311" stop-color="#399EE9"/>
<stop offset="1" stop-color="#00CFFF"/>
</linearGradient>
<linearGradient id="paint8_linear_168_664" x1="36.987" y1="17.8972" x2="38.2398" y2="19.5079" gradientUnits="userSpaceOnUse">
<stop stop-color="#3F259D" stop-opacity="0"/>
<stop offset="1" stop-color="#412DAA"/>
</linearGradient>
<clipPath id="clip0_168_664">
<rect width="50.1117" height="50.1117" fill="white"/>
</clipPath>
</defs>
</svg>
